<svg width="41" height="30" viewBox="0 0 41 30" fill="none" xmlns="http://www.w3.org/2000/svg">
<g clip-path="url(#clip0_169_15)">
<path d="M35.0281 0.160156H6.66836C3.4285 0.160156 0.792725 2.11005 0.792725 4.50684V25.4868C0.792725 27.8836 3.4285 29.8335 6.66836 29.8335H35.0281C38.268 29.8335 40.9038 27.8836 40.9038 25.4868V4.50684C40.9038 2.11005 38.268 0.160156 35.0281 0.160156ZM38.5535 25.4868C38.5535 26.9249 36.972 28.0948 35.0281 28.0948H6.66836C4.72451 28.0948 3.14298 26.9249 3.14298 25.4868V4.50684C3.14298 3.06881 4.72451 1.89883 6.66836 1.89883H35.0281C36.972 1.89883 38.5535 3.06881 38.5535 4.50684V25.4868Z" fill="#070707" stroke="#070707" stroke-width="0.5"/>
<path d="M19.6732 12.3885C19.6732 10.471 17.5647 8.91113 14.9726 8.91113H7.92188V21.0818H14.9726C17.5647 21.0818 19.6732 19.522 19.6732 17.6045C19.6732 16.5667 19.0547 15.6342 18.0766 14.9965C19.0547 14.3587 19.6732 13.4262 19.6732 12.3885ZM17.3229 17.6045C17.3229 18.5633 16.2687 19.3432 14.9726 19.3432H10.2721V15.8658H14.9726C16.2687 15.8658 17.3229 16.6457 17.3229 17.6045ZM10.2721 14.1272V10.6498H14.9726C16.2687 10.6498 17.3229 11.4297 17.3229 12.3885C17.3229 13.3472 16.2687 14.1272 14.9726 14.1272H10.2721Z" fill="#070707" stroke="#070707" stroke-width="0.5"/>
<path d="M27.8991 12.3887C24.6592 12.3887 22.0234 14.3386 22.0234 16.7354C22.0234 19.1321 24.6592 21.082 27.8991 21.082C29.9901 21.082 31.9401 20.2496 32.9879 18.9094L30.9535 18.0387C30.3243 18.8435 29.1538 19.3434 27.8991 19.3434C26.3668 19.3434 25.0601 18.6167 24.5751 17.6047H33.7747V16.7354C33.7747 14.3386 31.1389 12.3887 27.8991 12.3887ZM24.5751 15.866C25.0601 14.8541 26.3668 14.1273 27.8991 14.1273C29.4313 14.1273 30.7381 14.8541 31.2231 15.866H24.5751Z" fill="#070707" stroke="#070707" stroke-width="0.5"/>
<path d="M23.1985 8.91113H32.5995V10.6498H23.1985V8.91113Z" fill="#070707" stroke="#070707" stroke-width="0.5"/>
</g>
<defs>
<clipPath id="clip0_169_15">
<rect width="40.111" height="29.6734" fill="white" transform="translate(0.792725 0.160156)"/>
</clipPath>
</defs>
</svg>
