<svg width="40" height="30" viewBox="0 0 40 30" fill="none" xmlns="http://www.w3.org/2000/svg">
<path d="M28.2786 0.5C31.3045 0.5 34.0333 1.43758 35.9944 2.92676C37.9555 4.41606 39.1262 6.43408 39.1262 8.61426V21.0576C39.1262 23.2378 37.9554 25.2558 35.9954 26.7451C34.0354 28.2343 31.3094 29.1719 28.2883 29.1719H11.8743C8.84804 29.1719 6.11712 28.2359 4.15356 26.749C2.19 25.2622 1.01793 23.2481 1.01782 21.0723V8.62109C1.0179 6.44147 2.19017 4.42398 4.15356 2.93457C6.11713 1.44515 8.84822 0.506836 11.8743 0.506836H12.3743V0.5H28.2786ZM11.8743 1.78906C9.46366 1.78906 7.27028 2.52247 5.66724 3.73926C4.16333 4.8809 3.16272 6.46507 3.03931 8.26465L3.02661 8.62695V21.0791C3.02661 23.019 4.05663 24.7345 5.6604 25.9492C7.26344 27.1633 9.45906 27.8975 11.8743 27.8975H28.2883C30.6946 27.8975 32.8859 27.1633 34.4866 25.9473C36.0881 24.7305 37.1174 23.0107 37.1174 21.0645V8.62109C37.1174 6.67486 36.0884 4.95504 34.4856 3.73828C32.8837 2.52222 30.6893 1.78906 28.2786 1.78906H11.8743ZM20.0813 7.35254C22.8768 7.35254 25.4006 8.22133 27.2151 9.59766C29.0298 10.9741 30.1106 12.835 30.1106 14.8398C30.1105 16.8446 29.0297 18.7056 27.2151 20.082C25.4006 21.4582 22.8766 22.3262 20.0813 22.3262C17.2859 22.3262 14.762 21.4582 12.9475 20.082C11.1329 18.7056 10.0521 16.8446 10.052 14.8398C10.052 12.835 11.1329 10.9741 12.9475 9.59766C14.762 8.22133 17.2858 7.35255 20.0813 7.35254ZM20.0813 8.63477C17.8964 8.63478 15.9072 9.29856 14.4534 10.4014C12.9985 11.5049 12.0608 13.0681 12.0608 14.8398C12.0609 16.6114 12.9987 18.1739 14.4534 19.2773C15.9072 20.3802 17.8964 21.0439 20.0813 21.0439C22.2663 21.0439 24.2553 20.3802 25.7092 19.2773C27.1639 18.1739 28.1017 16.6115 28.1018 14.8398C28.1018 13.068 27.1641 11.5049 25.7092 10.4014C24.2553 9.29856 22.2662 8.63477 20.0813 8.63477ZM32.1145 5.07129C32.4354 5.07129 32.7025 5.16858 32.8782 5.30176C33.0525 5.43403 33.1184 5.58262 33.1184 5.71191C33.1184 5.84121 33.0525 5.98981 32.8782 6.12207C32.7025 6.25525 32.4354 6.35254 32.1145 6.35254C31.7936 6.35251 31.5264 6.25527 31.3508 6.12207C31.1765 5.98982 31.1106 5.84119 31.1106 5.71191C31.1106 5.58264 31.1765 5.43401 31.3508 5.30176C31.5264 5.16855 31.7936 5.07132 32.1145 5.07129Z" fill="#070707" stroke="#070707"/>
</svg>
