<svg width="42" height="31" viewBox="0 0 42 31" fill="none" xmlns="http://www.w3.org/2000/svg">
<path d="M35.2829 0.638672H6.8838C3.63944 0.638672 1 2.59145 1 4.99178V26.0028C1 28.4031 3.63944 30.3559 6.8838 30.3559H35.2829C38.5273 30.3559 41.1667 28.4031 41.1667 26.0028V4.99178C41.1667 2.59145 38.5273 0.638672 35.2829 0.638672ZM38.8132 26.0028C38.8132 27.4429 37.2295 28.6146 35.2829 28.6146H6.8838C4.93724 28.6146 3.35352 27.4429 3.35352 26.0028V4.99178C3.35352 3.55162 4.93724 2.37991 6.8838 2.37991H35.2829C37.2295 2.37991 38.8132 3.55162 38.8132 4.99178V26.0028Z" fill="#070707" stroke="#070707" stroke-width="0.5"/>
<path d="M27.333 12.043C28.1147 12.0599 28.8606 12.1761 29.5459 12.4434L29.8359 12.5674C30.6913 12.9667 31.2544 13.5271 31.6152 14.1973L31.7578 14.4912C32.0296 15.1151 32.1192 15.7592 32.1201 16.4121V22.0625L32.1133 22.1631H27.832V16.8359L27.8242 16.5596C27.8107 16.3299 27.7779 16.1016 27.7129 15.875L27.6699 15.7393C27.4096 14.9904 26.7172 14.6388 25.9824 14.5625C25.3397 14.4959 24.6601 14.6389 24.2012 14.9131L24.0186 15.0381C23.5719 15.3925 23.2771 15.7961 23.2646 16.2959L23.2529 16.6484L23.252 22.0254V22.1621H18.9795V12.2783H23.25V13.6045L23.2607 13.6074C23.2715 13.6109 23.2834 13.6155 23.2949 13.6191L23.3047 13.6211L23.4033 13.5225C23.7799 13.1345 24.2052 12.7852 24.7451 12.5264L24.9834 12.4209C25.6245 12.1614 26.3111 12.0532 27.0254 12.042L27.333 12.043Z" fill="#070707" stroke="#070707" stroke-width="0.0306072"/>
<path d="M16.3191 12.2764V22.1689H12.0691V12.2764H16.3191Z" fill="#070707" stroke="#070707" stroke-width="0.0306072"/>
<path d="M14.377 7.34082C15.0483 7.34014 15.6201 7.51695 16.0244 7.81836C16.4284 8.11958 16.6657 8.54543 16.668 9.04492L16.6572 9.22656C16.6074 9.64213 16.3808 9.9981 16.0225 10.2598C15.6125 10.5591 15.0301 10.7351 14.3457 10.7354L14.0996 10.7275C12.8943 10.6467 12.0641 9.96639 12.0615 9.04102L12.0723 8.8584C12.1228 8.44178 12.35 8.08378 12.708 7.82031C13.0663 7.5567 13.5553 7.38733 14.127 7.34863L14.377 7.34082Z" fill="#070707" stroke="#070707" stroke-width="0.0306072"/>
</svg>
